<?xml version="1.0" encoding="UTF-8" standalone="no"?>
<svg
   xmlns:dc="http://purl.org/dc/elements/1.1/"
   xmlns:cc="http://creativecommons.org/ns#"
   xmlns:rdf="http://www.w3.org/1999/02/22-rdf-syntax-ns#"
   xmlns:svg="http://www.w3.org/2000/svg"
   xmlns="http://www.w3.org/2000/svg"
   version="1.1"
   id="svg11">
  <metadata
     id="metadata15">
    <rdf:RDF>
      <cc:Work
         rdf:about="">
        <dc:format>image/svg+xml</dc:format>
        <dc:type
           rdf:resource="http://purl.org/dc/dcmitype/StillImage" />
        <dc:title></dc:title>
      </cc:Work>
    </rdf:RDF>
  </metadata>
  <defs
     id="defs9">
    <pattern
       id="pattern-checkers"
       x="0"
       y="0"
       width="20"
       height="20"
       patternUnits="userSpaceOnUse"
       patternTransform="scale(10 10)">
      <rect
         class="checker-bg"
         x="0"
         y="0"
         width="20"
         height="20"
         id="rect2" />
      <rect
         class="checker"
         x="0"
         y="0"
         width="10"
         height="10"
         id="rect4" />
      <rect
         class="checker"
         x="10"
         y="10"
         width="10"
         height="10"
         id="rect6" />
    </pattern>
  </defs>
  <g
     id="g873"
     transform="translate(30)">
    <g
       id="moveHorizHandle">
      <circle
         r="8.3532677"
         cy="0"
         cx="0"
         id="path866"
         style="color:#000000;display:inline;overflow:visible;visibility:visible;opacity:0.5;vector-effect:none;fill:#000000;fill-opacity:1;fill-rule:nonzero;stroke:#ffffff;stroke-width:0.5;stroke-linecap:square;stroke-linejoin:miter;stroke-miterlimit:4;stroke-dasharray:none;stroke-dashoffset:0;stroke-opacity:1;marker:none;enable-background:accumulate;font-variant-east_asian:normal" />
      <path
         style="fill:#ffffff;fill-opacity:1;fill-rule:evenodd;stroke:#000000;stroke-width:0.5;stroke-linecap:square;stroke-linejoin:miter;stroke-miterlimit:4;stroke-dasharray:none;stroke-opacity:1"
         d="m 4,-1 h -8 v -2 l -3,3 3,3 V 1 H 4 V 3 L 7,0 4,-3 v 2"
         id="path870" />
    </g>
  </g>
  <g
     id="g881"
     transform="translate(50)">
    <g
       id="moveOmniHandle">
      <circle
         style="color:#000000;display:inline;overflow:visible;visibility:visible;opacity:0.5;vector-effect:none;fill:#000000;fill-opacity:1;fill-rule:nonzero;stroke:#ffffff;stroke-width:0.5;stroke-linecap:square;stroke-linejoin:miter;stroke-miterlimit:4;stroke-dasharray:none;stroke-dashoffset:0;stroke-opacity:1;marker:none;enable-background:accumulate;font-variant-east_asian:normal"
         id="circle875"
         cx="0"
         cy="0"
         r="8.3532677" />
      <path
         id="path877"
         d="M 1,1 H 4 V 3 L 7,0 4,-3 v 2 M 1,1 V 4 H 3 L 0,7 -3,4 h 2 V 1 h -3 v 2 l -3,-3 3,-3 v 2 h 3 v -3 h -2 l 3,-3 3,3 H 1 v 3 h 3"
         style="fill:#ffffff;fill-opacity:1;fill-rule:evenodd;stroke:#000000;stroke-width:0.5;stroke-linecap:square;stroke-linejoin:miter;stroke-miterlimit:4;stroke-dasharray:none;stroke-opacity:1" />
    </g>
  </g>
  <g
     transform="translate(30,22.5)"
     id="g889">
    <g
       id="scaleHorizHandle">
      <circle
         style="color:#000000;display:inline;overflow:visible;visibility:visible;opacity:0.5;vector-effect:none;fill:#000000;fill-opacity:1;fill-rule:nonzero;stroke:#ffffff;stroke-width:0.5;stroke-linecap:square;stroke-linejoin:miter;stroke-miterlimit:4;stroke-dasharray:none;stroke-dashoffset:0;stroke-opacity:1;marker:none;enable-background:accumulate;font-variant-east_asian:normal"
         id="circle883"
         cx="0"
         cy="0"
         r="8.3532677" />
      <path
         style="fill:none;fill-rule:evenodd;stroke:#000000;stroke-width:0.60000002;stroke-linecap:butt;stroke-linejoin:miter;stroke-miterlimit:4;stroke-dasharray:none;stroke-opacity:1"
         d="M 1.5,-1 V 1"
         id="path891" />
      <path
         id="path885"
         d="M 4,-1 H 2.5 V 1 H 4 V 3 L 7,0 4,-3 v 2 m -6.5,0 H -4 v -2 l -3,3 3,3 V 1 h 1.5 z"
         style="fill:#ffffff;fill-opacity:1;fill-rule:evenodd;stroke:#000000;stroke-width:0.5;stroke-linecap:square;stroke-linejoin:miter;stroke-miterlimit:4;stroke-dasharray:none;stroke-opacity:1" />
      <path
         style="fill:none;fill-rule:evenodd;stroke:#000000;stroke-width:0.60000002;stroke-linecap:butt;stroke-linejoin:miter;stroke-miterlimit:4;stroke-dasharray:none;stroke-opacity:1"
         d="M -1.5,-1 V 1"
         id="path893" />
      <path
         id="path897"
         d="M 0,-1 V 1"
         style="fill:none;fill-rule:evenodd;stroke:#000000;stroke-width:1.20000005;stroke-linecap:butt;stroke-linejoin:miter;stroke-miterlimit:4;stroke-dasharray:none;stroke-opacity:1" />
    </g>
  </g>
  <g
     id="g911"
     transform="translate(50,22.5)">
    <g
       id="blankHandle">
      <circle
         r="8.3532677"
         cy="0"
         cx="0"
         id="circle899"
         style="color:#000000;display:inline;overflow:visible;visibility:visible;opacity:0.5;vector-effect:none;fill:#000000;fill-opacity:1;fill-rule:nonzero;stroke:#ffffff;stroke-width:0.5;stroke-linecap:square;stroke-linejoin:miter;stroke-miterlimit:4;stroke-dasharray:none;stroke-dashoffset:0;stroke-opacity:1;marker:none;enable-background:accumulate" />
    </g>
  </g>
  <g
     id="g925"
     transform="translate(30,45)">
    <g
       id="rotateHandle">
      <circle
         r="8.3532677"
         cy="0"
         cx="0"
         id="circle913"
         style="color:#000000;display:inline;overflow:visible;visibility:visible;opacity:0.5;vector-effect:none;fill:#000000;fill-opacity:1;fill-rule:nonzero;stroke:#ffffff;stroke-width:0.5;stroke-linecap:square;stroke-linejoin:miter;stroke-miterlimit:4;stroke-dasharray:none;stroke-dashoffset:0;stroke-opacity:1;marker:none;enable-background:accumulate;font-variant-east_asian:normal" />
      <path
         id="path990"
         d="M -3,-1.5 A 3.35,3.35 0 1 1 1.5,3 V 5 A 5.22,5.22 0 1 0 -5,-1.5"
         style="fill:#fffefe;fill-opacity:1;fill-rule:evenodd;stroke:none;stroke-width:1px;stroke-linecap:round;stroke-linejoin:bevel;stroke-opacity:1" />
      <path
         style="fill:none;fill-opacity:1;fill-rule:evenodd;stroke:#000000;stroke-width:0.5;stroke-linecap:round;stroke-linejoin:bevel;stroke-miterlimit:4;stroke-dasharray:none;stroke-opacity:1"
         d="M -3,-1.5 A 3.35,3.35 0 1 1 1.5,3 m 0,0 m 0,2 A 5.22,5.22 0 1 0 -5,-1.5"
         id="path988" />
      <path
         id="path917"
         style="fill:#ffffff;fill-opacity:1;fill-rule:evenodd;stroke:#000000;stroke-width:0.5;stroke-linecap:round;stroke-linejoin:miter;stroke-miterlimit:4;stroke-dasharray:none;stroke-opacity:1"
         d="M -5,-1.5 V 0 h -2 l 3,3 3,-3 H -3 V -1.5 M 1.5,3 m 0,0 H 0 V 1 L -3,4 0,7 V 5 h 1.5" />
    </g>
  </g>
  <g
     transform="translate(30,70)"
     id="g1027">
    <g
       id="projectorHandle">
      <circle
         style="color:#000000;display:inline;overflow:visible;visibility:visible;opacity:0.5;vector-effect:none;fill:#000000;fill-opacity:1;fill-rule:nonzero;stroke:#ffffff;stroke-width:0.5;stroke-linecap:square;stroke-linejoin:miter;stroke-miterlimit:4;stroke-dasharray:none;stroke-dashoffset:0;stroke-opacity:1;marker:none;enable-background:accumulate"
         id="circle1023"
         cx="0"
         cy="0"
         r="8.3532677" />
      <path
         id="path843"
         d="M 0,0 H 7 A 7,7 0 0 1 0,7 V 0"
         style="fill:#fff967;fill-rule:evenodd;stroke:none;stroke-width:1px;stroke-linecap:butt;stroke-linejoin:miter;stroke-opacity:1;fill-opacity:0.5" />
      <path
         style="fill:#fff967;fill-opacity:0.5;fill-rule:evenodd;stroke:none;stroke-width:1px;stroke-linecap:butt;stroke-linejoin:miter;stroke-opacity:1"
         d="M 0,0 H -7 A 7,7 0 0 1 0,-7 V 0"
         id="path848" />
    </g>
  </g>
</svg>
